<svg width="145" height="32" viewBox="0 0 145 32" fill="none" xmlns="http://www.w3.org/2000/svg">
<g clip-path="url(#clip0)">
<path d="M26.6228 24.269H24V8.06771H30.9865C32.4411 8.06771 33.5862 8.50872 34.4218 9.39074C35.2573 10.2573 35.6751 11.441 35.6751 12.942C35.6751 14.1026 35.4044 15.0697 34.8628 15.8434C34.3366 16.6016 33.5552 17.1355 32.5184 17.445L36.0233 24.269H33.0987L29.8492 17.7235H26.6228V24.269ZM30.8008 15.5184C31.4662 15.5184 31.9846 15.3482 32.356 15.0078C32.7273 14.6519 32.913 14.149 32.913 13.4991V12.385C32.913 11.735 32.7273 11.2399 32.356 10.8995C31.9846 10.5435 31.4662 10.3656 30.8008 10.3656H26.6228V15.5184H30.8008Z" fill="white"/>
<path d="M42.9547 24.5475C42.0882 24.5475 41.3145 24.4005 40.6336 24.1065C39.9527 23.8125 39.3725 23.3947 38.8928 22.8531C38.4131 22.2961 38.0417 21.6307 37.7786 20.857C37.5311 20.0678 37.4073 19.1935 37.4073 18.2341C37.4073 17.2747 37.5311 16.4082 37.7786 15.6345C38.0417 14.8453 38.4131 14.1799 38.8928 13.6384C39.3725 13.0813 39.9527 12.6558 40.6336 12.3617C41.3145 12.0677 42.0882 11.9207 42.9547 11.9207C43.8367 11.9207 44.6104 12.0755 45.2758 12.385C45.9567 12.6944 46.5215 13.1277 46.9702 13.6848C47.419 14.2264 47.7516 14.8608 47.9683 15.5881C48.2004 16.3154 48.3164 17.0968 48.3164 17.9324V18.884H40.0301V19.2786C40.0301 20.2071 40.3009 20.973 40.8425 21.5765C41.3996 22.1645 42.1887 22.4585 43.21 22.4585C43.9528 22.4585 44.5795 22.2961 45.0901 21.9711C45.6008 21.6462 46.034 21.2051 46.3899 20.6481L47.8754 22.1104C47.4267 22.8531 46.7768 23.4489 45.9257 23.8976C45.0746 24.3309 44.0843 24.5475 42.9547 24.5475ZM42.9547 13.8937C42.5214 13.8937 42.1191 13.971 41.7477 14.1258C41.3918 14.2805 41.0823 14.4972 40.8193 14.7757C40.5717 15.0542 40.3783 15.3869 40.239 15.7738C40.0997 16.1606 40.0301 16.5862 40.0301 17.0504V17.2129H45.6472V16.9807C45.6472 16.0523 45.4073 15.3095 44.9276 14.7525C44.4479 14.1799 43.7903 13.8937 42.9547 13.8937Z" fill="white"/>
<path d="M59.4964 24.269C58.831 24.269 58.3203 24.0833 57.9644 23.7119C57.6085 23.3251 57.3919 22.8377 57.3145 22.2496H57.1985C56.9664 23.0079 56.5408 23.5804 55.9219 23.9673C55.3029 24.3541 54.5524 24.5475 53.6704 24.5475C52.417 24.5475 51.4499 24.2226 50.769 23.5727C50.1036 22.9228 49.7709 22.0485 49.7709 20.9498C49.7709 19.7429 50.2042 18.8376 51.0708 18.2341C51.9528 17.6307 53.2371 17.3289 54.9238 17.3289H57.1056V16.3076C57.1056 15.5649 56.9045 14.9923 56.5021 14.59C56.0998 14.1877 55.4731 13.9865 54.622 13.9865C53.9102 13.9865 53.33 14.1413 52.8812 14.4507C52.4325 14.7602 52.0534 15.1548 51.7439 15.6345L50.2352 14.2651C50.6375 13.5842 51.2023 13.0271 51.9296 12.5939C52.6568 12.1451 53.6085 11.9207 54.7845 11.9207C56.3474 11.9207 57.5466 12.2844 58.3822 13.0117C59.2178 13.7389 59.6356 14.7834 59.6356 16.1451V22.2032H60.9122V24.269H59.4964ZM54.3899 22.621C55.1791 22.621 55.829 22.4508 56.3397 22.1104C56.8503 21.7545 57.1056 21.2825 57.1056 20.6945V18.9537H54.9702C53.2217 18.9537 52.3474 19.4953 52.3474 20.5785V20.9963C52.3474 21.5378 52.5253 21.9479 52.8812 22.2264C53.2526 22.4895 53.7555 22.621 54.3899 22.621Z" fill="white"/>
<path d="M65.504 24.269C64.6375 24.269 63.9876 24.0524 63.5543 23.6191C63.1365 23.1704 62.9276 22.5514 62.9276 21.7622V7.09284H65.4576V22.2032H67.1288V24.269H65.504Z" fill="white"/>
<path d="M72.3112 24.269C71.4292 24.269 70.7638 24.0446 70.3151 23.5959C69.8663 23.1317 69.6419 22.4818 69.6419 21.6462V14.2651H67.7618V12.1993H68.7831C69.2009 12.1993 69.4872 12.1064 69.6419 11.9207C69.8122 11.735 69.8973 11.4333 69.8973 11.0155V8.9033H72.1719V12.1993H74.7019V14.2651H72.1719V22.2032H74.5163V24.269H72.3112Z" fill="white"/>
<path d="M85.8255 24.269C85.1601 24.269 84.6494 24.0833 84.2935 23.7119C83.9376 23.3251 83.721 22.8377 83.6436 22.2496H83.5276C83.2955 23.0079 82.8699 23.5804 82.251 23.9673C81.632 24.3541 80.8815 24.5475 79.9995 24.5475C78.7461 24.5475 77.779 24.2226 77.0981 23.5727C76.4327 22.9228 76.1 22.0485 76.1 20.9498C76.1 19.7429 76.5333 18.8376 77.3999 18.2341C78.2819 17.6307 79.5662 17.3289 81.2529 17.3289H83.4347V16.3076C83.4347 15.5649 83.2336 14.9923 82.8312 14.59C82.4289 14.1877 81.8022 13.9865 80.9511 13.9865C80.2393 13.9865 79.6591 14.1413 79.2103 14.4507C78.7616 14.7602 78.3825 15.1548 78.073 15.6345L76.5643 14.2651C76.9666 13.5842 77.5314 13.0271 78.2587 12.5939C78.986 12.1451 79.9376 11.9207 81.1136 11.9207C82.6765 11.9207 83.8757 12.2844 84.7113 13.0117C85.5469 13.7389 85.9647 14.7834 85.9647 16.1451V22.2032H87.2413V24.269H85.8255ZM80.719 22.621C81.5082 22.621 82.1581 22.4508 82.6688 22.1104C83.1794 21.7545 83.4347 21.2825 83.4347 20.6945V18.9537H81.2993C79.5507 18.9537 78.6765 19.4953 78.6765 20.5785V20.9963C78.6765 21.5378 78.8544 21.9479 79.2103 22.2264C79.5817 22.4895 80.0846 22.621 80.719 22.621Z" fill="white"/>
<path d="M94.4636 24.269V8.06771H97.0864V21.9479H103.678V24.269H94.4636Z" fill="white"/>
<path d="M110.222 24.5475C109.387 24.5475 108.621 24.4005 107.924 24.1065C107.244 23.8125 106.663 23.3947 106.184 22.8531C105.704 22.2961 105.332 21.6307 105.069 20.857C104.806 20.0678 104.675 19.1935 104.675 18.2341C104.675 17.2747 104.806 16.4082 105.069 15.6345C105.332 14.8453 105.704 14.1799 106.184 13.6384C106.663 13.0813 107.244 12.6558 107.924 12.3617C108.621 12.0677 109.387 11.9207 110.222 11.9207C111.058 11.9207 111.816 12.0677 112.497 12.3617C113.193 12.6558 113.781 13.0813 114.261 13.6384C114.741 14.1799 115.112 14.8453 115.375 15.6345C115.638 16.4082 115.77 17.2747 115.77 18.2341C115.77 19.1935 115.638 20.0678 115.375 20.857C115.112 21.6307 114.741 22.2961 114.261 22.8531C113.781 23.3947 113.193 23.8125 112.497 24.1065C111.816 24.4005 111.058 24.5475 110.222 24.5475ZM110.222 22.4585C111.089 22.4585 111.785 22.1955 112.311 21.6694C112.837 21.1278 113.1 20.3231 113.1 19.2554V17.2129C113.1 16.1451 112.837 15.3482 112.311 14.8221C111.785 14.2805 111.089 14.0097 110.222 14.0097C109.356 14.0097 108.659 14.2805 108.133 14.8221C107.607 15.3482 107.344 16.1451 107.344 17.2129V19.2554C107.344 20.3231 107.607 21.1278 108.133 21.6694C108.659 22.1955 109.356 22.4585 110.222 22.4585Z" fill="white"/>
<path d="M128.709 25.4063C128.709 26.6597 128.229 27.6037 127.27 28.2381C126.31 28.8725 124.747 29.1897 122.581 29.1897C121.591 29.1897 120.747 29.1201 120.051 28.9808C119.37 28.8571 118.805 28.6714 118.357 28.4238C117.923 28.1762 117.606 27.8745 117.405 27.5185C117.204 27.1626 117.103 26.7526 117.103 26.2884C117.103 25.623 117.281 25.1046 117.637 24.7332C118.008 24.3618 118.519 24.1065 119.169 23.9673V23.7119C118.256 23.4179 117.8 22.799 117.8 21.8551C117.8 21.2361 118.008 20.7641 118.426 20.4392C118.844 20.0988 119.347 19.8589 119.935 19.7196V19.6268C119.223 19.2864 118.674 18.8144 118.287 18.2109C117.916 17.592 117.73 16.8724 117.73 16.0523C117.73 14.8144 118.14 13.8163 118.96 13.0581C119.796 12.2999 120.987 11.9207 122.535 11.9207C123.386 11.9207 124.113 12.0445 124.716 12.2921V11.9672C124.716 11.4256 124.84 11.0078 125.088 10.7138C125.351 10.4043 125.753 10.2495 126.295 10.2495H128.152V12.2921H125.691V12.7795C126.233 13.1354 126.651 13.5997 126.945 14.1722C127.239 14.7293 127.386 15.356 127.386 16.0523C127.386 17.2747 126.968 18.2651 126.132 19.0233C125.297 19.7661 124.105 20.1374 122.558 20.1374C121.97 20.1374 121.444 20.0755 120.979 19.9518C120.67 20.0601 120.399 20.2148 120.167 20.416C119.935 20.6017 119.819 20.8492 119.819 21.1587C119.819 21.4837 119.966 21.7158 120.26 21.8551C120.554 21.9943 120.972 22.064 121.513 22.064H124.484C125.97 22.064 127.045 22.3657 127.711 22.9692C128.376 23.5572 128.709 24.3696 128.709 25.4063ZM126.341 25.6849C126.341 25.2671 126.179 24.9344 125.854 24.6868C125.544 24.4392 124.972 24.3154 124.136 24.3154H120.051C119.494 24.6404 119.215 25.1046 119.215 25.7081C119.215 26.2033 119.409 26.5978 119.796 26.8919C120.198 27.2013 120.871 27.3561 121.815 27.3561H123.393C125.359 27.3561 126.341 26.799 126.341 25.6849ZM122.558 18.3038C123.301 18.3038 123.873 18.1413 124.275 17.8163C124.693 17.4759 124.902 16.9575 124.902 16.2612V15.797C124.902 15.1006 124.693 14.59 124.275 14.2651C123.873 13.9246 123.301 13.7544 122.558 13.7544C121.815 13.7544 121.235 13.9246 120.817 14.2651C120.415 14.59 120.214 15.1006 120.214 15.797V16.2612C120.214 16.9575 120.415 17.4759 120.817 17.8163C121.235 18.1413 121.815 18.3038 122.558 18.3038Z" fill="white"/>
<path d="M131.404 10.0406C130.878 10.0406 130.491 9.91685 130.243 9.66927C130.011 9.42168 129.895 9.10447 129.895 8.71762V8.32303C129.895 7.93618 130.011 7.61896 130.243 7.37138C130.491 7.12379 130.878 7 131.404 7C131.93 7 132.309 7.12379 132.541 7.37138C132.773 7.61896 132.889 7.93618 132.889 8.32303V8.71762C132.889 9.10447 132.773 9.42168 132.541 9.66927C132.309 9.91685 131.93 10.0406 131.404 10.0406ZM130.127 12.1993H132.657V24.269H130.127V12.1993Z" fill="white"/>
<path d="M140.471 24.5475C139.605 24.5475 138.831 24.4005 138.15 24.1065C137.469 23.8125 136.897 23.3947 136.432 22.8531C135.968 22.2961 135.612 21.6307 135.365 20.857C135.117 20.0678 134.993 19.1935 134.993 18.2341C134.993 17.2747 135.117 16.4082 135.365 15.6345C135.612 14.8453 135.968 14.1799 136.432 13.6384C136.897 13.0813 137.469 12.6558 138.15 12.3617C138.831 12.0677 139.605 11.9207 140.471 11.9207C141.678 11.9207 142.668 12.1915 143.442 12.7331C144.216 13.2747 144.781 13.9943 145.137 14.8917L143.048 15.8666C142.877 15.3095 142.576 14.8685 142.142 14.5436C141.725 14.2032 141.167 14.0329 140.471 14.0329C139.543 14.0329 138.839 14.3269 138.359 14.915C137.895 15.4875 137.663 16.238 137.663 17.1664V19.3251C137.663 20.2535 137.895 21.0117 138.359 21.5997C138.839 22.1723 139.543 22.4585 140.471 22.4585C141.214 22.4585 141.802 22.2806 142.235 21.9247C142.684 21.5533 143.04 21.0659 143.303 20.4624L145.229 21.4837C144.827 22.474 144.224 23.2322 143.419 23.7584C142.614 24.2845 141.632 24.5475 140.471 24.5475Z" fill="white"/>
<path fill-rule="evenodd" clip-rule="evenodd" d="M18 7H0V25H18V7ZM6.89225 11.2191C7.68846 10.8934 8.38969 10.4339 8.98059 9.87738C9.5666 10.4391 10.2638 10.9046 11.0571 11.2372C11.8504 11.5699 12.6712 11.7409 13.4825 11.7652C13.4997 12.5767 13.6635 13.3989 13.9893 14.1951C14.315 14.9913 14.7744 15.6926 15.331 16.2835C14.7693 16.8695 14.3038 17.5667 13.9711 18.36C13.6384 19.1533 13.4674 19.974 13.4432 20.7854C12.6316 20.8026 11.8095 20.9664 11.0133 21.2921C10.217 21.6179 9.51583 22.0773 8.92493 22.6339C8.3389 22.0722 7.64172 21.6066 6.84837 21.274C6.05503 20.9413 5.23432 20.7703 4.42295 20.746C4.40574 19.9344 4.24193 19.1123 3.91619 18.316C3.59046 17.5199 3.13106 16.8187 2.57454 16.2278C3.13621 15.6417 3.60172 14.9446 3.93439 14.1512C4.26707 13.3579 4.43804 12.5372 4.46233 11.7259C5.27388 11.7086 6.09604 11.5448 6.89225 11.2191Z" fill="white"/>
</g>
<defs>
<clipPath id="clip0">
<rect width="145" height="32" fill="white"/>
</clipPath>
</defs>
</svg>
